{
    "asset" : {
        "generator" : "Khronos glTF Blender I/O v1.3.48",
        "version" : "2.0"
    },
    "scene" : 0,
    "scenes" : [
        {
            "name" : "Scene",
            "nodes" : [
                0,
                1,
                2,
                3,
                4
            ]
        }
    ],
    "nodes" : [
        {
            "mesh" : 0,
            "name" : "Box001",
            "scale" : [
                0.02539999969303608,
                0.02539999969303608,
                0.02539999969303608
            ]
        },
        {
            "mesh" : 1,
            "name" : "Box002",
            "scale" : [
                0.09122457355260849,
                0.09122457355260849,
                0.09122457355260849
            ],
            "translation" : [
                0,
                -46.97651290893555,
                2.723704710660968e-06
            ]
        },
        {
            "mesh" : 2,
            "name" : "Plane001",
            "scale" : [
                0.004812842700630426,
                0.02539999969303608,
                0.0028277565725147724
            ],
            "translation" : [
                -2.2680773735046387,
                6.413437843322754,
                8.046903610229492
            ]
        },
        {
            "mesh" : 3,
            "name" : "Plane001_collider",
            "scale" : [
                0.004812842700630426,
                0.02539999969303608,
                0.0028277565725147724
            ],
            "translation" : [
                -2.2680773735046387,
                6.413437843322754,
                8.046903610229492
            ]
        },
        {
            "mesh" : 4,
            "name" : "Sphere",
            "translation" : [
                6.539781093597412,
                28.695911407470703,
                -18.34931182861328
            ]
        }
    ],
    "animations" : [
        {
            "channels" : [
                {
                    "sampler" : 0,
                    "target" : {
                        "node" : 0,
                        "path" : "translation"
                    }
                },
                {
                    "sampler" : 1,
                    "target" : {
                        "node" : 0,
                        "path" : "rotation"
                    }
                },
                {
                    "sampler" : 2,
                    "target" : {
                        "node" : 0,
                        "path" : "scale"
                    }
                }
            ],
            "name" : "Box001|Take 001|BaseLayer.001",
            "samplers" : [
                {
                    "input" : 20,
                    "interpolation" : "LINEAR",
                    "output" : 21
                },
                {
                    "input" : 20,
                    "interpolation" : "LINEAR",
                    "output" : 22
                },
                {
                    "input" : 20,
                    "interpolation" : "LINEAR",
                    "output" : 23
                }
            ]
        },
        {
            "channels" : [
                {
                    "sampler" : 0,
                    "target" : {
                        "node" : 1,
                        "path" : "translation"
                    }
                },
                {
                    "sampler" : 1,
                    "target" : {
                        "node" : 1,
                        "path" : "rotation"
                    }
                },
                {
                    "sampler" : 2,
                    "target" : {
                        "node" : 1,
                        "path" : "scale"
                    }
                }
            ],
            "name" : "Box002Action",
            "samplers" : [
                {
                    "input" : 24,
                    "interpolation" : "STEP",
                    "output" : 25
                },
                {
                    "input" : 24,
                    "interpolation" : "STEP",
                    "output" : 26
                },
                {
                    "input" : 24,
                    "interpolation" : "STEP",
                    "output" : 27
                }
            ]
        },
        {
            "channels" : [
                {
                    "sampler" : 0,
                    "target" : {
                        "node" : 4,
                        "path" : "translation"
                    }
                },
                {
                    "sampler" : 1,
                    "target" : {
                        "node" : 4,
                        "path" : "rotation"
                    }
                },
                {
                    "sampler" : 2,
                    "target" : {
                        "node" : 4,
                        "path" : "scale"
                    }
                }
            ],
            "name" : "SphereAction",
            "samplers" : [
                {
                    "input" : 24,
                    "interpolation" : "STEP",
                    "output" : 28
                },
                {
                    "input" : 24,
                    "interpolation" : "STEP",
                    "output" : 29
                },
                {
                    "input" : 24,
                    "interpolation" : "STEP",
                    "output" : 30
                }
            ]
        }
    ],
    "materials" : [
        {
            "doubleSided" : true,
            "emissiveFactor" : [
                0,
                0,
                0
            ],
            "name" : "02 - Default.001",
            "pbrMetallicRoughness" : {
                "baseColorTexture" : {
                    "index" : 0,
                    "texCoord" : 0
                },
                "metallicFactor" : 0,
                "roughnessFactor" : 0.06545454263687134
            }
        },
        {
            "emissiveFactor" : [
                0,
                0.22542952001094818,
                0.4460446834564209
            ],
            "name" : "01 - Default.001",
            "pbrMetallicRoughness" : {
                "baseColorTexture" : {
                    "index" : 1,
                    "texCoord" : 0
                },
                "metallicFactor" : 0,
                "roughnessFactor" : 1
            }
        },
        {
            "doubleSided" : true,
            "emissiveFactor" : [
                0,
                0,
                0
            ],
            "name" : "Wall Paint.001",
            "pbrMetallicRoughness" : {
                "baseColorTexture" : {
                    "index" : 2,
                    "texCoord" : 0
                },
                "metallicFactor" : 0,
                "roughnessFactor" : 0.9200591444969177
            }
        },
        {
            "doubleSided" : true,
            "emissiveFactor" : [
                0,
                0,
                0
            ],
            "name" : "Wall Paint.002",
            "pbrMetallicRoughness" : {
                "baseColorFactor" : [
                    0.6999999284744263,
                    0.6235831379890442,
                    0,
                    1
                ],
                "metallicFactor" : 0,
                "roughnessFactor" : 0.9200591444969177
            }
        },
        {
            "doubleSided" : true,
            "emissiveFactor" : [
                0.9564067125320435,
                1,
                0
            ],
            "name" : "Material.001",
            "pbrMetallicRoughness" : {
                "baseColorFactor" : [
                    0.8000000715255737,
                    0.6891388297080994,
                    0,
                    1
                ],
                "metallicFactor" : 0,
                "roughnessFactor" : 0.5
            }
        }
    ],
    "meshes" : [
        {
            "name" : "Mesh.003",
            "primitives" : [
                {
                    "attributes" : {
                        "POSITION" : 0,
                        "NORMAL" : 1,
                        "TEXCOORD_0" : 2
                    },
                    "indices" : 3,
                    "material" : 0
                }
            ]
        },
        {
            "name" : "Mesh.004",
            "primitives" : [
                {
                    "attributes" : {
                        "POSITION" : 4,
                        "NORMAL" : 5,
                        "TEXCOORD_0" : 6
                    },
                    "indices" : 7,
                    "material" : 1
                }
            ]
        },
        {
            "name" : "Mesh.005",
            "primitives" : [
                {
                    "attributes" : {
                        "POSITION" : 8,
                        "NORMAL" : 9,
                        "TEXCOORD_0" : 10
                    },
                    "indices" : 11,
                    "material" : 2
                }
            ]
        },
        {
            "name" : "Mesh.006",
            "primitives" : [
                {
                    "attributes" : {
                        "POSITION" : 12,
                        "NORMAL" : 13,
                        "TEXCOORD_0" : 14
                    },
                    "indices" : 15,
                    "material" : 3
                }
            ]
        },
        {
            "name" : "Sphere",
            "primitives" : [
                {
                    "attributes" : {
                        "POSITION" : 16,
                        "NORMAL" : 17,
                        "TEXCOORD_0" : 18
                    },
                    "indices" : 19,
                    "material" : 4
                }
            ]
        }
    ],
    "textures" : [
        {
            "source" : 0
        },
        {
            "source" : 1
        },
        {
            "source" : 2
        }
    ],
    "images" : [
        {
            "bufferView" : 4,
            "mimeType" : "image/jpeg",
            "name" : "Tileable classic water texture"
        },
        {
            "bufferView" : 9,
            "mimeType" : "image/jpeg",
            "name" : "b6bfb01a2773dec45c3e6ff98c484131"
        },
        {
            "bufferView" : 14,
            "mimeType" : "image/png",
            "name" : "841a17dc6986c5edda5deb639f70e7b4"
        }
    ],
    "accessors" : [
        {
            "bufferView" : 0,
            "componentType" : 5126,
            "count" : 24,
            "max" : [
                1574.8031005859375,
                150.029541015625,
                1574.8031005859375
            ],
            "min" : [
                -1574.8031005859375,
                0,
                -1574.8031005859375
            ],
            "type" : "VEC3"
        },
        {
            "bufferView" : 1,
            "componentType" : 5126,
            "count" : 24,
            "type" : "VEC3"
        },
        {
            "bufferView" : 2,
            "componentType" : 5126,
            "count" : 24,
            "type" : "VEC2"
        },
        {
            "bufferView" : 3,
            "componentType" : 5123,
            "count" : 36,
            "type" : "SCALAR"
        },
        {
            "bufferView" : 5,
            "componentType" : 5126,
            "count" : 57,
            "max" : [
                432.3189697265625,
                924.4449462890625,
                432.3189697265625
            ],
            "min" : [
                -432.3189697265625,
                492.1259460449219,
                -432.3189697265625
            ],
            "type" : "VEC3"
        },
        {
            "bufferView" : 6,
            "componentType" : 5126,
            "count" : 57,
            "type" : "VEC3"
        },
        {
            "bufferView" : 7,
            "componentType" : 5126,
            "count" : 57,
            "type" : "VEC2"
        },
        {
            "bufferView" : 8,
            "componentType" : 5123,
            "count" : 288,
            "type" : "SCALAR"
        },
        {
            "bufferView" : 10,
            "componentType" : 5126,
            "count" : 182,
            "max" : [
                5694.0927734375,
                12.838653564453125,
                5524.7255859375
            ],
            "min" : [
                -4133.26171875,
                -277.92327880859375,
                -13323.8818359375
            ],
            "type" : "VEC3"
        },
        {
            "bufferView" : 11,
            "componentType" : 5126,
            "count" : 182,
            "type" : "VEC3"
        },
        {
            "bufferView" : 12,
            "componentType" : 5126,
            "count" : 182,
            "type" : "VEC2"
        },
        {
            "bufferView" : 13,
            "componentType" : 5123,
            "count" : 996,
            "type" : "SCALAR"
        },
        {
            "bufferView" : 15,
            "componentType" : 5126,
            "count" : 680,
            "max" : [
                5694.0927734375,
                12.838653564453125,
                5524.7255859375
            ],
            "min" : [
                -4133.26171875,
                -277.92327880859375,
                -13323.8818359375
            ],
            "type" : "VEC3"
        },
        {
            "bufferView" : 16,
            "componentType" : 5126,
            "count" : 680,
            "type" : "VEC3"
        },
        {
            "bufferView" : 17,
            "componentType" : 5126,
            "count" : 680,
            "type" : "VEC2"
        },
        {
            "bufferView" : 18,
            "componentType" : 5123,
            "count" : 996,
            "type" : "SCALAR"
        },
        {
            "bufferView" : 19,
            "componentType" : 5126,
            "count" : 1984,
            "max" : [
                1.000000238418579,
                1,
                1.0000003576278687
            ],
            "min" : [
                -0.9999998211860657,
                -1,
                -1
            ],
            "type" : "VEC3"
        },
        {
            "bufferView" : 20,
            "componentType" : 5126,
            "count" : 1984,
            "type" : "VEC3"
        },
        {
            "bufferView" : 21,
            "componentType" : 5126,
            "count" : 1984,
            "type" : "VEC2"
        },
        {
            "bufferView" : 22,
            "componentType" : 5123,
            "count" : 2880,
            "type" : "SCALAR"
        },
        {
            "bufferView" : 23,
            "componentType" : 5126,
            "count" : 261,
            "max" : [
                8.7
            ],
            "min" : [
                0.03333333333333333
            ],
            "type" : "SCALAR"
        },
        {
            "bufferView" : 24,
            "componentType" : 5126,
            "count" : 261,
            "type" : "VEC3"
        },
        {
            "bufferView" : 25,
            "componentType" : 5126,
            "count" : 261,
            "type" : "VEC4"
        },
        {
            "bufferView" : 26,
            "componentType" : 5126,
            "count" : 261,
            "type" : "VEC3"
        },
        {
            "bufferView" : 27,
            "componentType" : 5126,
            "count" : 1,
            "max" : [
                0
            ],
            "min" : [
                0
            ],
            "type" : "SCALAR"
        },
        {
            "bufferView" : 28,
            "componentType" : 5126,
            "count" : 1,
            "type" : "VEC3"
        },
        {
            "bufferView" : 29,
            "componentType" : 5126,
            "count" : 1,
            "type" : "VEC4"
        },
        {
            "bufferView" : 30,
            "componentType" : 5126,
            "count" : 1,
            "type" : "VEC3"
        },
        {
            "bufferView" : 31,
            "componentType" : 5126,
            "count" : 1,
            "type" : "VEC3"
        },
        {
            "bufferView" : 32,
            "componentType" : 5126,
            "count" : 1,
            "type" : "VEC4"
        },
        {
            "bufferView" : 33,
            "componentType" : 5126,
            "count" : 1,
            "type" : "VEC3"
        }
    ],
    "bufferViews" : [
        {
            "buffer" : 0,
            "byteLength" : 288,
            "byteOffset" : 0
        },
        {
            "buffer" : 0,
            "byteLength" : 288,
            "byteOffset" : 288
        },
        {
            "buffer" : 0,
            "byteLength" : 192,
            "byteOffset" : 576
        },
        {
            "buffer" : 0,
            "byteLength" : 72,
            "byteOffset" : 768
        },
        {
            "buffer" : 0,
            "byteLength" : 190776,
            "byteOffset" : 840
        },
        {
            "buffer" : 0,
            "byteLength" : 684,
            "byteOffset" : 191616
        },
        {
            "buffer" : 0,
            "byteLength" : 684,
            "byteOffset" : 192300
        },
        {
            "buffer" : 0,
            "byteLength" : 456,
            "byteOffset" : 192984
        },
        {
            "buffer" : 0,
            "byteLength" : 576,
            "byteOffset" : 193440
        },
        {
            "buffer" : 0,
            "byteLength" : 37229,
            "byteOffset" : 194016
        },
        {
            "buffer" : 0,
            "byteLength" : 2184,
            "byteOffset" : 231248
        },
        {
            "buffer" : 0,
            "byteLength" : 2184,
            "byteOffset" : 233432
        },
        {
            "buffer" : 0,
            "byteLength" : 1456,
            "byteOffset" : 235616
        },
        {
            "buffer" : 0,
            "byteLength" : 1992,
            "byteOffset" : 237072
        },
        {
            "buffer" : 0,
            "byteLength" : 2350012,
            "byteOffset" : 239064
        },
        {
            "buffer" : 0,
            "byteLength" : 8160,
            "byteOffset" : 2589076
        },
        {
            "buffer" : 0,
            "byteLength" : 8160,
            "byteOffset" : 2597236
        },
        {
            "buffer" : 0,
            "byteLength" : 5440,
            "byteOffset" : 2605396
        },
        {
            "buffer" : 0,
            "byteLength" : 1992,
            "byteOffset" : 2610836
        },
        {
            "buffer" : 0,
            "byteLength" : 23808,
            "byteOffset" : 2612828
        },
        {
            "buffer" : 0,
            "byteLength" : 23808,
            "byteOffset" : 2636636
        },
        {
            "buffer" : 0,
            "byteLength" : 15872,
            "byteOffset" : 2660444
        },
        {
            "buffer" : 0,
            "byteLength" : 5760,
            "byteOffset" : 2676316
        },
        {
            "buffer" : 0,
            "byteLength" : 1044,
            "byteOffset" : 2682076
        },
        {
            "buffer" : 0,
            "byteLength" : 3132,
            "byteOffset" : 2683120
        },
        {
            "buffer" : 0,
            "byteLength" : 4176,
            "byteOffset" : 2686252
        },
        {
            "buffer" : 0,
            "byteLength" : 3132,
            "byteOffset" : 2690428
        },
        {
            "buffer" : 0,
            "byteLength" : 4,
            "byteOffset" : 2693560
        },
        {
            "buffer" : 0,
            "byteLength" : 12,
            "byteOffset" : 2693564
        },
        {
            "buffer" : 0,
            "byteLength" : 16,
            "byteOffset" : 2693576
        },
        {
            "buffer" : 0,
            "byteLength" : 12,
            "byteOffset" : 2693592
        },
        {
            "buffer" : 0,
            "byteLength" : 12,
            "byteOffset" : 2693604
        },
        {
            "buffer" : 0,
            "byteLength" : 16,
            "byteOffset" : 2693616
        },
        {
            "buffer" : 0,
            "byteLength" : 12,
            "byteOffset" : 2693632
        }
    ],
    "buffers" : [
        {
            "byteLength" : 2693644,
            "uri" : "data:application/octet-stream;base64,"
        }
    ]
}
